<svg id="visual" viewBox="0 0 900 600" width="900" height="600" xmlns="http://www.w3.org/2000/svg" xmlns:xlink="http://www.w3.org/1999/xlink" version="1.1"><rect width="900" height="600" fill="#FFFFFF"></rect><g><g transform="translate(208 148)"><path d="M56.4 -18.8C64.8 7.4 57.5 38.2 37.6 53C17.6 67.8 -14.9 66.5 -38.4 50.1C-61.8 33.7 -76.3 2.1 -68.4 -23.5C-60.5 -49.1 -30.2 -68.8 -3.1 -67.8C24 -66.8 48.1 -45.1 56.4 -18.8Z" stroke="#71bcbf" fill="none" stroke-width="20"></path></g><g transform="translate(826 60)"><path d="M53.3 -17.2C62 9.4 57.1 40.6 38.2 54.8C19.3 69.1 -13.6 66.5 -34.4 50.6C-55.3 34.7 -64.1 5.5 -56.4 -19.8C-48.7 -45.1 -24.3 -66.4 -1 -66.1C22.3 -65.8 44.6 -43.8 53.3 -17.2Z" stroke="#71bcbf" fill="none" stroke-width="20"></path></g><g transform="translate(810 520)"><path d="M45.2 -16.1C51.7 5.5 45.5 29.8 29.9 41.3C14.2 52.7 -11 51.2 -28.3 38.7C-45.7 26.1 -55.2 2.5 -49.2 -18.3C-43.2 -39.1 -21.6 -57.2 -1.1 -56.9C19.3 -56.5 38.6 -37.7 45.2 -16.1Z" stroke="#71bcbf" fill="none" stroke-width="20"></path></g><g transform="translate(360 388)"><path d="M43.8 -13.4C50.1 5.4 44.2 29.1 28.2 41.4C12.1 53.6 -14 54.5 -32.6 41.8C-51.1 29 -62 2.7 -55.3 -16.6C-48.6 -35.9 -24.3 -48 -2.8 -47.1C18.7 -46.2 37.4 -32.2 43.8 -13.4Z" stroke="#71bcbf" fill="none" stroke-width="20"></path></g></g></svg>