<svg id="visual" viewBox="0 0 1920 1080" width="1920" height="1080" xmlns="http://www.w3.org/2000/svg" xmlns:xlink="http://www.w3.org/1999/xlink" version="1.1"><rect width="1920" height="1080" fill="#00acb1"></rect><g><g transform="translate(1280 308)"><path d="M182.6 -55.2C208.1 19.4 180.8 115.3 120.1 157.6C59.4 199.8 -34.7 188.5 -99.8 140.4C-164.9 92.4 -201.1 7.7 -179.6 -61.3C-158.2 -130.2 -79.1 -183.2 -0.3 -183.1C78.5 -183 157 -129.8 182.6 -55.2Z" stroke="#71bcbf" fill="none" stroke-width="20"></path></g><g transform="translate(238 119)"><path d="M109.6 -31.1C126.7 16.9 114.6 79 75.9 107.9C37.1 136.9 -28.2 132.8 -71.1 100.8C-114.1 68.9 -134.8 9.2 -119.2 -36.8C-103.7 -82.8 -51.8 -115 -2.8 -114.1C46.3 -113.2 92.5 -79.2 109.6 -31.1Z" stroke="#71bcbf" fill="none" stroke-width="20"></path></g><g transform="translate(1747 1079)"><path d="M138.9 -43.1C159.5 18.3 141.6 94.3 89 135.6C36.4 176.9 -50.9 183.6 -108.4 143.2C-165.9 102.9 -193.5 15.5 -170.5 -49.2C-147.5 -113.9 -73.7 -156 -7.3 -153.6C59.1 -151.2 118.3 -104.4 138.9 -43.1Z" stroke="#71bcbf" fill="none" stroke-width="20"></path></g><g transform="translate(858 842)"><path d="M129.6 -36.8C148 14.7 129.4 83.5 85.7 114.4C42 145.4 -26.7 138.4 -69.9 105C-113.1 71.5 -130.8 11.6 -114.9 -36.4C-99 -84.4 -49.5 -120.5 3 -121.5C55.6 -122.5 111.1 -88.3 129.6 -36.8Z" stroke="#71bcbf" fill="none" stroke-width="20"></path></g></g></svg>